<svg xmlns="http://www.w3.org/2000/svg" viewBox="0 0 60 60" width="60" height="60" stroke="#257A6D" stroke-width="1"
    fill="none">
    <defs>
        <filter id="f2" width="120" height="120">
            <feOffset in="SourceGraphic" dx="60" dy="60" />
            <feGaussianBlur stdDeviation="10" />
            <feBlend in="SourceGraphic" in2="blurOut" />
        </filter>
    </defs>
    <!-- Background circle -->
    <circle cx="30" cy="30" r="26" fill="#F4F5F7" stroke="#E5EAF0" stroke-width="0" />
    <!-- White border ring -->
    <circle cx="30" cy="30" r="22" fill="none" stroke="#ffffff" stroke-width="4" />
    <g transform="translate(15,15) scale(1.2)">
        <path stroke-linecap="round" stroke-linejoin="round" d="M15 19.128 a9.38 9.38 0 0 0 2.625.372
         9.337 9.337 0 0 0 4.121-.952
         4.125 4.125 0 0 0-7.533-2.493
         M15 19.128v-.003c0-1.113-.285-2.16-.786-3.07
         M15 19.128v.106A12.318 12.318 0 0 1 8.624 21
         c-2.331 0-4.512-.645-6.374-1.766l-.001-.109
         a6.375 6.375 0 0 1 11.964-3.07
         M12 6.375a3.375 3.375 0 1 1-6.75 0
         3.375 3.375 0 0 1 6.75 0
         ZM20.25 8.625a2.625 2.625 0 1 1-5.25 0
         2.625 2.625 0 0 1 5.25 0Z" />
    </g>
</svg>
